<?xml version="1.0" standalone="no"?><!DOCTYPE svg PUBLIC "-//W3C//DTD SVG 1.1//EN" "http://www.w3.org/Graphics/SVG/1.1/DTD/svg11.dtd"><svg t="1620989295238" class="icon" viewBox="0 0 2234 1024" version="1.1" xmlns="http://www.w3.org/2000/svg" p-id="1746" xmlns:xlink="http://www.w3.org/1999/xlink" width="436.328125" height="200"><defs><style type="text/css"></style></defs><path d="M851.656846 0h1063.633828L1181.72481 366.742183H40.749131L781.853584 15.688416A162.996526 162.996526 0 0 1 851.656846 0z" fill="#F2F2F2" p-id="1747"></path><path d="M1181.72481 366.742183L1897.768547 4.074913a40.300891 40.300891 0 0 1 54.277843 19.885576c2.567195 5.582631 3.911917 11.695001 3.911917 17.929618v424.931942a83.943211 83.943211 0 0 1-46.617006 75.671137L1181.72481 896.480891V366.742183z" fill="#CFCFCF" p-id="1748"></path><path d="M1181.72481 366.742183L1897.768547 4.074913a40.300891 40.300891 0 0 1 54.277843 19.885576c2.567195 5.582631 3.911917 11.695001 3.911917 17.929618l-774.233497 396.89654V366.742183z" fill="#E6E6E6" p-id="1749"></path><path d="M0 366.742183m40.749131 0l1140.975679 0q40.749131 0 40.749132 40.749131l0 448.240445q0 40.749131-40.749132 40.749132l-1140.975679 0q-40.749131 0-40.749131-40.749132l0-448.240445q0-40.749131 40.749131-40.749131Z" fill="#D9D9D9" p-id="1750"></path><path d="M81.498263 448.240445h1059.477416v366.742183H81.498263z" fill="#4E505D" p-id="1751"></path><path d="M855.731759 529.738708h162.996526v122.247394h-162.996526z" fill="#44DDB8" p-id="1752"></path></svg>